<svg xmlns="http://www.w3.org/2000/svg" viewBox="0 0 900 380" role="img" aria-label="scaleway-500k cycle p99 across milestones">
  <text x="450" y="22" text-anchor="middle" font-family="ui-sans-serif, system-ui" font-size="14" font-weight="600" fill="#222">scaleway-500k shard cycle p99 across milestones (log scale)</text>
  <g transform="translate(70,40)">
    <line x1="0" y1="250.0" x2="800" y2="250.0" stroke="#eee" stroke-dasharray="2 2" />
<text x="-10" y="254.0" text-anchor="end" font-family="ui-sans-serif, system-ui" font-size="11" fill="#555">10 ms</text>
<line x1="0" y1="166.7" x2="800" y2="166.7" stroke="#eee" stroke-dasharray="2 2" />
<text x="-10" y="170.7" text-anchor="end" font-family="ui-sans-serif, system-ui" font-size="11" fill="#555">100 ms</text>
<line x1="0" y1="83.3" x2="800" y2="83.3" stroke="#eee" stroke-dasharray="2 2" />
<text x="-10" y="87.3" text-anchor="end" font-family="ui-sans-serif, system-ui" font-size="11" fill="#555">1.00 s</text>
<line x1="0" y1="0.0" x2="800" y2="0.0" stroke="#eee" stroke-dasharray="2 2" />
<text x="-10" y="4.0" text-anchor="end" font-family="ui-sans-serif, system-ui" font-size="11" fill="#555">10.00 s</text>
<line x1="0" y1="166.7" x2="800" y2="166.7" stroke="#3498db" stroke-dasharray="6 4" />
<text x="796" y="160.7" text-anchor="end" font-family="ui-sans-serif, system-ui" font-size="11" fill="#3498db">100 ms SLO</text>

    <rect x="5.0" y="32.9" width="23.3" height="217.1" fill="#e74c3c" rx="2" />
<text x="16.7" y="26.9" text-anchor="middle" font-family="ui-sans-serif, system-ui" font-size="11" fill="#333">4.03 s</text>
<rect x="38.3" y="32.5" width="23.3" height="217.5" fill="#e74c3c" rx="2" />
<text x="50.0" y="26.5" text-anchor="middle" font-family="ui-sans-serif, system-ui" font-size="11" fill="#333">4.07 s</text>
<rect x="71.7" y="32.5" width="23.3" height="217.5" fill="#e74c3c" rx="2" />
<text x="83.3" y="26.5" text-anchor="middle" font-family="ui-sans-serif, system-ui" font-size="11" fill="#333">4.08 s</text>
<rect x="105.0" y="36.1" width="23.3" height="213.9" fill="#e74c3c" rx="2" />
<text x="116.7" y="30.1" text-anchor="middle" font-family="ui-sans-serif, system-ui" font-size="11" fill="#333">3.69 s</text>
<rect x="138.3" y="95.9" width="23.3" height="154.1" fill="#e74c3c" rx="2" />
<text x="150.0" y="89.9" text-anchor="middle" font-family="ui-sans-serif, system-ui" font-size="11" fill="#333">706 ms</text>
<rect x="171.7" y="99.8" width="23.3" height="150.2" fill="#e74c3c" rx="2" />
<text x="183.3" y="93.8" text-anchor="middle" font-family="ui-sans-serif, system-ui" font-size="11" fill="#333">634 ms</text>
<rect x="205.0" y="107.9" width="23.3" height="142.1" fill="#e74c3c" rx="2" />
<text x="216.7" y="101.9" text-anchor="middle" font-family="ui-sans-serif, system-ui" font-size="11" fill="#333">507 ms</text>
<rect x="238.3" y="107.6" width="23.3" height="142.4" fill="#e74c3c" rx="2" />
<text x="250.0" y="101.6" text-anchor="middle" font-family="ui-sans-serif, system-ui" font-size="11" fill="#333">512 ms</text>
<rect x="271.7" y="135.2" width="23.3" height="114.8" fill="#e74c3c" rx="2" />
<text x="283.3" y="129.2" text-anchor="middle" font-family="ui-sans-serif, system-ui" font-size="11" fill="#333">239 ms</text>
<rect x="305.0" y="150.6" width="23.3" height="99.4" fill="#e74c3c" rx="2" />
<text x="316.7" y="144.6" text-anchor="middle" font-family="ui-sans-serif, system-ui" font-size="11" fill="#333">156 ms</text>
<rect x="338.3" y="184.2" width="23.3" height="65.8" fill="#e74c3c" rx="2" />
<text x="350.0" y="178.2" text-anchor="middle" font-family="ui-sans-serif, system-ui" font-size="11" fill="#333">62 ms</text>
<rect x="371.7" y="183.2" width="23.3" height="66.8" fill="#e74c3c" rx="2" />
<text x="383.3" y="177.2" text-anchor="middle" font-family="ui-sans-serif, system-ui" font-size="11" fill="#333">63 ms</text>
<rect x="405.0" y="162.5" width="23.3" height="87.5" fill="#e74c3c" rx="2" />
<text x="416.7" y="156.5" text-anchor="middle" font-family="ui-sans-serif, system-ui" font-size="11" fill="#333">112 ms</text>
<rect x="438.3" y="165.3" width="23.3" height="84.7" fill="#e74c3c" rx="2" />
<text x="450.0" y="159.3" text-anchor="middle" font-family="ui-sans-serif, system-ui" font-size="11" fill="#333">104 ms</text>
<rect x="471.7" y="188.0" width="23.3" height="62.0" fill="#2ecc71" rx="2" />
<text x="483.3" y="182.0" text-anchor="middle" font-family="ui-sans-serif, system-ui" font-size="11" fill="#333">55 ms</text>
<rect x="505.0" y="184.4" width="23.3" height="65.6" fill="#2ecc71" rx="2" />
<text x="516.7" y="178.4" text-anchor="middle" font-family="ui-sans-serif, system-ui" font-size="11" fill="#333">61 ms</text>
<rect x="538.3" y="184.9" width="23.3" height="65.1" fill="#2ecc71" rx="2" />
<text x="550.0" y="178.9" text-anchor="middle" font-family="ui-sans-serif, system-ui" font-size="11" fill="#333">60 ms</text>
<rect x="571.7" y="184.5" width="23.3" height="65.5" fill="#2ecc71" rx="2" />
<text x="583.3" y="178.5" text-anchor="middle" font-family="ui-sans-serif, system-ui" font-size="11" fill="#333">61 ms</text>
<rect x="605.0" y="184.6" width="23.3" height="65.4" fill="#2ecc71" rx="2" />
<text x="616.7" y="178.6" text-anchor="middle" font-family="ui-sans-serif, system-ui" font-size="11" fill="#333">61 ms</text>
<rect x="638.3" y="183.9" width="23.3" height="66.1" fill="#2ecc71" rx="2" />
<text x="650.0" y="177.9" text-anchor="middle" font-family="ui-sans-serif, system-ui" font-size="11" fill="#333">62 ms</text>
<rect x="671.7" y="189.2" width="23.3" height="60.8" fill="#2ecc71" rx="2" />
<text x="683.3" y="183.2" text-anchor="middle" font-family="ui-sans-serif, system-ui" font-size="11" fill="#333">54 ms</text>
<rect x="705.0" y="184.3" width="23.3" height="65.7" fill="#2ecc71" rx="2" />
<text x="716.7" y="178.3" text-anchor="middle" font-family="ui-sans-serif, system-ui" font-size="11" fill="#333">61 ms</text>
<rect x="738.3" y="193.3" width="23.3" height="56.7" fill="#2ecc71" rx="2" />
<text x="750.0" y="187.3" text-anchor="middle" font-family="ui-sans-serif, system-ui" font-size="11" fill="#333">48 ms</text>
<rect x="771.7" y="208.6" width="23.3" height="41.4" fill="#2ecc71" rx="2" />
<text x="783.3" y="202.6" text-anchor="middle" font-family="ui-sans-serif, system-ui" font-size="11" fill="#333">31 ms</text>

    <text x="16.7" y="262.0" text-anchor="end" font-family="ui-sans-serif, system-ui" font-size="11" fill="#555" transform="rotate(-30 16.7 262.0)">scaleway-500k</text>
<text x="50.0" y="262.0" text-anchor="end" font-family="ui-sans-serif, system-ui" font-size="11" fill="#555" transform="rotate(-30 50.0 262.0)">scaleway-500k-m1117</text>
<text x="83.3" y="262.0" text-anchor="end" font-family="ui-sans-serif, system-ui" font-size="11" fill="#555" transform="rotate(-30 83.3 262.0)">scaleway-500k-m1118</text>
<text x="116.7" y="262.0" text-anchor="end" font-family="ui-sans-serif, system-ui" font-size="11" fill="#555" transform="rotate(-30 116.7 262.0)">scaleway-500k-m1120</text>
<text x="150.0" y="262.0" text-anchor="end" font-family="ui-sans-serif, system-ui" font-size="11" fill="#555" transform="rotate(-30 150.0 262.0)">scaleway-500k-m1122</text>
<text x="183.3" y="262.0" text-anchor="end" font-family="ui-sans-serif, system-ui" font-size="11" fill="#555" transform="rotate(-30 183.3 262.0)">scaleway-500k-m1123</text>
<text x="216.7" y="262.0" text-anchor="end" font-family="ui-sans-serif, system-ui" font-size="11" fill="#555" transform="rotate(-30 216.7 262.0)">scaleway-500k-m1124a</text>
<text x="250.0" y="262.0" text-anchor="end" font-family="ui-sans-serif, system-ui" font-size="11" fill="#555" transform="rotate(-30 250.0 262.0)">scaleway-500k-warmup-split</text>
<text x="283.3" y="262.0" text-anchor="end" font-family="ui-sans-serif, system-ui" font-size="11" fill="#555" transform="rotate(-30 283.3 262.0)">scaleway-500k-fakeidx</text>
<text x="316.7" y="262.0" text-anchor="end" font-family="ui-sans-serif, system-ui" font-size="11" fill="#555" transform="rotate(-30 316.7 262.0)">scaleway-500k-snapall</text>
<text x="350.0" y="262.0" text-anchor="end" font-family="ui-sans-serif, system-ui" font-size="11" fill="#555" transform="rotate(-30 350.0 262.0)">scaleway-500k-tmpfs</text>
<text x="383.3" y="262.0" text-anchor="end" font-family="ui-sans-serif, system-ui" font-size="11" fill="#555" transform="rotate(-30 383.3 262.0)">scaleway-500k-cleanup</text>
<text x="416.7" y="262.0" text-anchor="end" font-family="ui-sans-serif, system-ui" font-size="11" fill="#555" transform="rotate(-30 416.7 262.0)">scaleway-500k-strictgate</text>
<text x="450.0" y="262.0" text-anchor="end" font-family="ui-sans-serif, system-ui" font-size="11" fill="#555" transform="rotate(-30 450.0 262.0)">scaleway-500k-50kfloor</text>
<text x="483.3" y="262.0" text-anchor="end" font-family="ui-sans-serif, system-ui" font-size="11" fill="#555" transform="rotate(-30 483.3 262.0)">scaleway-500k-cleangate</text>
<text x="516.7" y="262.0" text-anchor="end" font-family="ui-sans-serif, system-ui" font-size="11" fill="#555" transform="rotate(-30 516.7 262.0)">scaleway-500k-z1</text>
<text x="550.0" y="262.0" text-anchor="end" font-family="ui-sans-serif, system-ui" font-size="11" fill="#555" transform="rotate(-30 550.0 262.0)">scaleway-500k-z2</text>
<text x="583.3" y="262.0" text-anchor="end" font-family="ui-sans-serif, system-ui" font-size="11" fill="#555" transform="rotate(-30 583.3 262.0)">scaleway-500k-z3</text>
<text x="616.7" y="262.0" text-anchor="end" font-family="ui-sans-serif, system-ui" font-size="11" fill="#555" transform="rotate(-30 616.7 262.0)">scaleway-500k-z4</text>
<text x="650.0" y="262.0" text-anchor="end" font-family="ui-sans-serif, system-ui" font-size="11" fill="#555" transform="rotate(-30 650.0 262.0)">scaleway-500k-z5</text>
<text x="683.3" y="262.0" text-anchor="end" font-family="ui-sans-serif, system-ui" font-size="11" fill="#555" transform="rotate(-30 683.3 262.0)">scaleway-500k-z6</text>
<text x="716.7" y="262.0" text-anchor="end" font-family="ui-sans-serif, system-ui" font-size="11" fill="#555" transform="rotate(-30 716.7 262.0)">scaleway-500k-rightsize</text>
<text x="750.0" y="262.0" text-anchor="end" font-family="ui-sans-serif, system-ui" font-size="11" fill="#555" transform="rotate(-30 750.0 262.0)">scaleway-500k-2node</text>
<text x="783.3" y="262.0" text-anchor="end" font-family="ui-sans-serif, system-ui" font-size="11" fill="#555" transform="rotate(-30 783.3 262.0)">scaleway-500k-2shard</text>

  </g>
</svg>
